<?xml version="1.0" encoding="UTF-8" standalone="no"?>
<svg
   xmlns:dc="http://purl.org/dc/elements/1.1/"
   xmlns:cc="http://creativecommons.org/ns#"
   xmlns:rdf="http://www.w3.org/1999/02/22-rdf-syntax-ns#"
   xmlns:svg="http://www.w3.org/2000/svg"
   xmlns="http://www.w3.org/2000/svg"
   xmlns:sodipodi="http://sodipodi.sourceforge.net/DTD/sodipodi-0.dtd"
   xmlns:inkscape="http://www.inkscape.org/namespaces/inkscape"
   data-name="Layer 1"
   viewBox="0 0 125 125"
   x="0px"
   y="0px"
   version="1.1"
   id="svg84"
   sodipodi:docname="ear_speak.svg"
   inkscape:version="0.92.1 r15371"
   width="125"
   height="125">
  <metadata
     id="metadata90">
    <rdf:RDF>
      <cc:Work
         rdf:about="">
        <dc:format>image/svg+xml</dc:format>
        <dc:type
           rdf:resource="http://purl.org/dc/dcmitype/StillImage" />
        <dc:title>Artboard 18</dc:title>
      </cc:Work>
    </rdf:RDF>
  </metadata>
  <defs
     id="defs88" />
  <sodipodi:namedview
     pagecolor="#ffffff"
     bordercolor="#666666"
     borderopacity="1"
     objecttolerance="10"
     gridtolerance="10"
     guidetolerance="10"
     inkscape:pageopacity="0"
     inkscape:pageshadow="2"
     inkscape:window-width="1920"
     inkscape:window-height="1048"
     id="namedview86"
     showgrid="true"
     inkscape:object-nodes="true"
     inkscape:snap-nodes="true"
     inkscape:measure-start="52.3106,39.0982"
     inkscape:measure-end="63.0303,45.9091"
     inkscape:zoom="4.6669048"
     inkscape:cx="13.73582"
     inkscape:cy="50.148814"
     inkscape:window-x="0"
     inkscape:window-y="16"
     inkscape:window-maximized="1"
     inkscape:current-layer="svg84">
    <inkscape:grid
       type="xygrid"
       id="grid4591" />
  </sodipodi:namedview>
  <title
     id="title70">Artboard 18</title>
  <path
     d="m 22.536479,78.832114 a 2.5692005,2.5692005 0 0 0 -2.466432,2.661692 16.638142,16.638142 0 0 0 15.918766,15.97015 h 0.647439 a 16.514821,16.514821 0 0 0 16.00098,-12.239671 24.664325,24.664325 0 0 1 2.199236,-5.662518 l 0.09249,-0.154152 A 32.505525,32.505525 0 0 1 66.829496,67.496801 33.050195,33.050195 0 1 0 22.85506,20.223512 2.5692005,2.5692005 0 1 0 27.089103,23.131847 27.654874,27.654874 0 0 1 47.478278,11.262141 27.891241,27.891241 0 0 1 64.188358,63.077777 37.643926,37.643926 0 0 0 50.448274,76.910352 l -0.09249,0.154152 a 29.566359,29.566359 0 0 0 -2.67197,6.823797 11.40725,11.40725 0 0 1 -11.499742,8.437254 11.623063,11.623063 0 0 1 -10.985901,-11.027008 2.5692005,2.5692005 0 0 0 -2.661692,-2.466433 z"
     id="path72"
     inkscape:connector-curvature="0"
     style="fill:#000000;stroke:#000000;stroke-width:3.641;stroke-miterlimit:4;stroke-dasharray:none;stroke-opacity:1;fill-opacity:1" />
  <path
     d="m 38.584144,33.353461 c 2.926973,-3.615813 7.535261,-5.432523 12.142257,-4.786807 l 0.317593,-2.080349 -0.215479,2.123078 c 5.113989,0.754294 9.0127,4.967862 9.368359,10.124921 0.35567,5.157067 -2.927695,9.865958 -7.88971,11.315166 -6.553458,1.943988 -12.00325,6.425645 -16.71442,13.692434 -1.674637,2.376784 2.021669,4.787997 3.522067,2.297555 C 43.326975,59.559206 47.914317,55.756396 53.516973,54.079052 60.361454,52.06404 64.884763,45.561548 64.393449,38.443556 63.902124,31.325568 58.528305,25.506212 51.471876,24.450704 l -0.122505,-0.03044 c -6.074713,-0.858718 -12.15493,1.530203 -16.020388,6.29441 -2.423097,2.967508 -3.54738,6.786641 -3.118593,10.593691 l 0.183812,1.563249 c 0.22331,2.903859 4.617681,2.399706 4.177542,-0.479272 L 36.387941,40.82908 c -0.522631,-3.131189 0.609726,-5.529657 2.196203,-7.475614 z"
     id="path74"
     inkscape:connector-curvature="0"
     sodipodi:nodetypes="ccccsccccscccccccc"
     style="fill:#000000;stroke:#000000;stroke-width:2.245;stroke-miterlimit:4;stroke-dasharray:none;stroke-opacity:1;fill-opacity:1" />
  <path
     style="fill:none;stroke:#000000;stroke-width:6.79154253;stroke-linecap:round;stroke-linejoin:miter;stroke-miterlimit:4;stroke-dasharray:none;stroke-opacity:1"
     d="M 76.614576,89.385633 97.228215,110"
     id="path92"
     inkscape:connector-curvature="0" />
  <path
     style="fill:none;stroke:#000000;stroke-width:6.59106112;stroke-linecap:round;stroke-linejoin:miter;stroke-miterlimit:4;stroke-dasharray:none;stroke-opacity:1"
     d="M 66.243718,96.436276 76.748146,117.18734"
     id="path92-3"
     inkscape:connector-curvature="0" />
  <path
     style="fill:none;stroke:#000000;stroke-width:6.7144413;stroke-linecap:round;stroke-linejoin:miter;stroke-miterlimit:4;stroke-dasharray:none;stroke-opacity:1"
     d="M 83.256665,78.725648 103.91541,89.138562"
     id="path92-6"
     inkscape:connector-curvature="0" />
</svg>
