<?xml version="1.0" encoding="UTF-8" standalone="no"?>
<svg
   xmlns:dc="http://purl.org/dc/elements/1.1/"
   xmlns:cc="http://creativecommons.org/ns#"
   xmlns:rdf="http://www.w3.org/1999/02/22-rdf-syntax-ns#"
   xmlns:svg="http://www.w3.org/2000/svg"
   xmlns="http://www.w3.org/2000/svg"
   xmlns:sodipodi="http://sodipodi.sourceforge.net/DTD/sodipodi-0.dtd"
   xmlns:inkscape="http://www.inkscape.org/namespaces/inkscape"
   width="48"
   height="48"
   viewBox="0 0 48 48"
   version="1.1"
   id="svg4521"
   sodipodi:docname="ic_hearing_48px.svg"
   inkscape:version="0.92.1 r15371">
  <metadata
     id="metadata4527">
    <rdf:RDF>
      <cc:Work
         rdf:about="">
        <dc:format>image/svg+xml</dc:format>
        <dc:type
           rdf:resource="http://purl.org/dc/dcmitype/StillImage" />
      </cc:Work>
    </rdf:RDF>
  </metadata>
  <defs
     id="defs4525" />
  <sodipodi:namedview
     pagecolor="#ffffff"
     bordercolor="#666666"
     borderopacity="1"
     objecttolerance="10"
     gridtolerance="10"
     guidetolerance="10"
     inkscape:pageopacity="0"
     inkscape:pageshadow="2"
     inkscape:window-width="1920"
     inkscape:window-height="1017"
     id="namedview4523"
     showgrid="false"
     inkscape:zoom="9.8333333"
     inkscape:cx="-3.2148947"
     inkscape:cy="20.750396"
     inkscape:window-x="-8"
     inkscape:window-y="-8"
     inkscape:window-maximized="1"
     inkscape:current-layer="svg4521" />
  <path
     d="m 29.491525,40 c -0.57,0 -1.13,-0.12 -1.53,-0.3 -1.41,-0.75 -2.43,-1.77 -3.42,-4.77 -1.03,-3.11 -2.94,-4.58 -4.79,-6.01 -1.58,-1.22 -3.22,-2.48 -4.63,-5.05 -1.05,-1.92 -1.63,-4.01 -1.63,-5.87 0,-5.61 4.39,-10 10,-10 5.61,0 10,4.39 10,10 h 4 c 0,-7.85 -6.15,-14 -14,-14 -7.85,0 -13.9999995,6.15 -13.9999995,14 0,2.53 0.7599995,5.3 2.1299995,7.8 1.82,3.31 3.97,4.96 5.7,6.3 1.62,1.25 2.79,2.15 3.43,4.09 1.2,3.63 2.75,5.68 5.45,7.1 1.04,0.47 2.14,0.71 3.29,0.71 4.41,0 8,-3.59 8,-8 h -4 c 0,2.21 -1.79,4 -4,4 z m -11,-22 c 0,2.76 2.24,5 5,5 2.76,0 5,-2.24 5,-5 0,-2.76 -2.24,-5 -5,-5 -2.76,0 -5,2.24 -5,5 z"
     id="path4517"
     inkscape:connector-curvature="0"
     sodipodi:nodetypes="sccccssccssccccsccssssss" />
  <path
     d="M0 0h48v48H0z"
     fill="none"
     id="path4519" />
</svg>
