<svg xmlns="http://www.w3.org/2000/svg" xmlns:xlink="http://www.w3.org/1999/xlink" version="1.1" x="0px" y="0px" viewBox="0 0 64 80" enable-background="new 0 0 64 64" xml:space="preserve"><g><path d="M22.284,63c-4.224,0-7.66-3.437-7.66-7.66V14.856c0-4.225,3.437-7.661,7.66-7.661h16.373V1v6.195h3.058   c4.225,0,7.661,3.437,7.661,7.661V55.34c0,4.224-3.437,7.66-7.661,7.66H22.284z M39.954,59.831h6.359v-4h-6.359V59.831z    M32.532,59.831h6.359v-4h-6.359V59.831z M25.108,59.831h6.359v-4h-6.359V59.831z M17.687,59.831h6.359v-4h-6.359V59.831z    M39.954,55.116h6.359v-4h-6.359V55.116z M32.532,55.116h6.359v-4h-6.359V55.116z M25.108,55.116h6.359v-4h-6.359V55.116z    M17.687,55.116h6.359v-4h-6.359V55.116z M39.954,50.401h6.359v-4h-6.359V50.401z M32.532,50.401h6.359v-4h-6.359V50.401z    M25.108,50.401h6.359v-4h-6.359V50.401z M17.687,50.401h6.359v-4h-6.359V50.401z M39.954,45.687h6.359v-4h-6.359V45.687z    M32.532,45.687h6.359v-4h-6.359V45.687z M25.108,45.687h6.359v-4h-6.359V45.687z M17.687,45.687h6.359v-4h-6.359V45.687z    M18.931,38.728h26.139V14.349H18.931V38.728z"/><path d="M41.715,8.195c3.673,0,6.661,2.988,6.661,6.661V55.34c0,1.327-0.391,2.565-1.063,3.605v-0.114v-2v-2v-0.715v-2v-2v-0.715   v-2v-2v-0.715v-2v-2h-2h-4.359h-1.063h-2h-4.359h-1.064h-2h-4.359h-1.063h-2h-4.359h-2v2v2v2v0.715v2v2v0.715v2v2v0.715v2v0.114   c-0.672-1.04-1.063-2.278-1.063-3.605V14.856c0-3.673,2.988-6.661,6.66-6.661h15.373h2H41.715 M17.931,39.728h2h24.139h2v-2V15.349   v-2h-2H19.931h-2v2v22.379V39.728 M45.48,60.831C44.408,61.568,43.111,62,41.715,62H22.284c-1.396,0-2.693-0.432-3.765-1.169h0.167   h4.359h1.063h2h4.359h1.064h2h4.359h1.063h2h4.359H45.48 M39.657,0h-2v6.195H22.284c-4.765,0-8.66,3.896-8.66,8.661V55.34   c0,4.763,3.896,8.66,8.66,8.66h19.431c4.765,0,8.661-3.897,8.661-8.66V14.856c0-4.765-3.896-8.661-8.661-8.661h-2.058V0L39.657,0z    M19.931,37.728V15.349h24.139v22.379H19.931L19.931,37.728z M40.954,44.687v-2h4.359v2H40.954L40.954,44.687z M33.532,44.687v-2   h4.359v2H33.532L33.532,44.687z M26.108,44.687v-2h4.359v2H26.108L26.108,44.687z M18.687,44.687v-2h4.359v2H18.687L18.687,44.687z    M40.954,49.401v-2h4.359v2H40.954L40.954,49.401z M33.532,49.401v-2h4.359v2H33.532L33.532,49.401z M26.108,49.401v-2h4.359v2   H26.108L26.108,49.401z M18.687,49.401v-2h4.359v2H18.687L18.687,49.401z M40.954,54.116v-2h4.359v2H40.954L40.954,54.116z    M33.532,54.116v-2h4.359v2H33.532L33.532,54.116z M26.108,54.116v-2h4.359v2H26.108L26.108,54.116z M18.687,54.116v-2h4.359v2   H18.687L18.687,54.116z M40.954,58.831v-2h4.359v2H40.954L40.954,58.831z M33.532,58.831v-2h4.359v2H33.532L33.532,58.831z    M26.108,58.831v-2h4.359v2H26.108L26.108,58.831z M18.687,58.831v-2h4.359v2H18.687L18.687,58.831z"/></g><text x="0" y="79" fill="#000000" font-size="5px" font-weight="bold" font-family="'Helvetica Neue', Helvetica, Arial-Unicode, Arial, Sans-serif">Created by Creative Stall</text><text x="0" y="84" fill="#000000" font-size="5px" font-weight="bold" font-family="'Helvetica Neue', Helvetica, Arial-Unicode, Arial, Sans-serif">from the Noun Project</text></svg>